<svg xmlns="http://www.w3.org/2000/svg" width="64" height="64" viewBox="0 0 64 64"><path fill="#1d4ed8" d="m32 3 23.6 6.1c1.8.5 2.9 2 2.9 3.8v17.6C58.5 45.2 47.6 55.6 32 61 16.4 55.6 5.5 45.2 5.5 30.5V12.9c0-1.8 1.1-3.3 2.9-3.8Z"/><path fill="none" stroke="#bfdbfe" stroke-opacity=".55" stroke-width="1.176" d="m32 7.14 19.82 5.12a3.2 3.2 0 0 1 2.44 3.2v14.78c0 12.34-9.16 21.08-22.26 25.62C18.9 51.32 9.74 42.58 9.74 30.24V15.45c0-1.51.92-2.77 2.44-3.19Z"/><path fill="#fff" d="M18.75 36.8v-4.66l1.25-1.5 1.25-1.49 1.25-1.49 4.49-5.25h4.51l-7.68 8.86h-.3zm-2.71 3.79V22.41h3.76v18.18zm11.31 0-5.44-8.24 2.26-2.85 7.51 11.09zm12.99.3q-2.58 0-4.53-1.18-1.94-1.17-3.03-3.28t-1.09-4.92q0-2.91 1.12-5.02t3.07-3.24q1.95-1.14 4.4-1.14 1.57 0 2.94.46 1.38.46 2.45 1.31t1.75 2.02.86 2.6h-3.82q-.14-.7-.49-1.26t-.88-.97-1.2-.62-1.49-.22q-1.53 0-2.64.74-1.1.74-1.7 2.1-.59 1.37-.59 3.24t.59 3.22q.6 1.36 1.72 2.1 1.11.74 2.66.74 1.27 0 2.24-.49.96-.48 1.5-1.35.55-.87.55-2.02l.89.07h-4.86v-2.85h7.64v2.32q0 2.25-1.03 3.97-1.04 1.73-2.85 2.7-1.82.97-4.18.97"/></svg>